<?xml version="1.0" encoding="UTF-8" standalone="no"?>
<!DOCTYPE svg PUBLIC "-//W3C//DTD SVG 1.1//EN" "http://www.w3.org/Graphics/SVG/1.1/DTD/svg11.dtd">
<svg version="1.1" xmlns="http://www.w3.org/2000/svg" xmlns:xlink="http://www.w3.org/1999/xlink" preserveAspectRatio="xMidYMid meet" viewBox="0 0 640 640" width="640" height="640"><defs><path d="M315.65 290.59C315.65 290.59 315.65 290.59 315.65 290.59C317.05 290.59 317.83 290.59 317.98 290.59C317.98 290.59 317.98 290.59 317.98 290.59C317.98 294.88 317.98 297.27 317.98 297.74C317.98 297.74 317.98 297.74 317.98 297.74C316.58 297.74 315.81 297.74 315.65 297.74C315.65 297.74 315.65 297.74 315.65 297.74C315.65 293.45 315.65 291.07 315.65 290.59Z" id="c7e0GQuOk"></path><path d="M297.41 253.2C297.41 253.2 297.41 253.2 297.41 253.2C298.49 253.2 299.1 253.2 299.22 253.2C299.22 253.2 299.22 253.2 299.22 253.2C299.22 258.56 299.22 261.54 299.22 262.14C299.22 262.14 299.22 262.14 299.22 262.14C298.13 262.14 297.53 262.14 297.41 262.14C297.41 262.14 297.41 262.14 297.41 262.14C297.41 256.78 297.41 253.8 297.41 253.2Z" id="d1Ws3usJtl"></path><path d="M324.26 341.18C324.4 343.61 322.67 345.7 320.38 345.85C320.21 345.86 320.04 345.86 319.86 345.85C317.58 346 315.61 344.16 315.46 341.73C315.32 339.3 317.06 337.21 319.34 337.05C319.52 337.04 319.69 337.04 319.86 337.05C322.15 336.9 324.12 338.75 324.26 341.18Z" id="e1X2NfHBgY"></path><path d="M324.26 332.24C324.4 334.67 322.67 336.76 320.38 336.92C320.21 336.93 320.04 336.93 319.86 336.92C317.58 337.07 315.61 335.22 315.46 332.79C315.32 330.36 317.06 328.27 319.34 328.12C319.52 328.11 319.69 328.11 319.86 328.12C322.15 327.97 324.12 329.81 324.26 332.24Z" id="a3VcXFYvHW"></path><path d="M324.26 310.66C324.4 313.09 322.67 315.18 320.38 315.33C320.21 315.34 320.04 315.34 319.86 315.33C317.58 315.48 315.61 313.64 315.46 311.21C315.32 308.78 317.06 306.69 319.34 306.54C319.52 306.52 319.69 306.52 319.86 306.54C322.15 306.38 324.12 308.23 324.26 310.66Z" id="a2W8abvWYp"></path><path d="M324.26 301.72C324.4 304.15 322.67 306.25 320.38 306.4C320.21 306.41 320.04 306.41 319.86 306.4C317.58 306.55 315.61 304.7 315.46 302.27C315.32 299.84 317.06 297.75 319.34 297.6C319.52 297.59 319.69 297.59 319.86 297.6C322.15 297.45 324.12 299.29 324.26 301.72Z" id="d1iJO1v1J4"></path><path d="M307.83 297.33C307.83 297.33 307.83 297.33 307.83 297.33C314.43 297.33 318.09 297.33 318.83 297.33C318.83 297.33 318.83 297.33 318.83 297.33C318.83 327.19 318.83 343.78 318.83 347.09C318.83 347.09 318.83 347.09 318.83 347.09C312.23 347.09 308.56 347.09 307.83 347.09C307.83 347.09 307.83 347.09 307.83 347.09C307.83 317.24 307.83 300.65 307.83 297.33Z" id="c1a4ENhJNk"></path><path d="M310.71 296.83C310.71 296.83 311.14 296.83 311.99 296.83C311.99 296.83 311.99 296.83 311.99 296.83C312.85 296.83 313.27 296.83 313.27 296.83C313.27 327.42 313.27 344.42 313.27 347.82C313.27 347.82 312.85 347.82 311.99 347.82C311.99 347.82 311.99 347.82 311.99 347.82C311.14 347.82 310.71 347.82 310.71 347.82C310.71 317.23 310.71 300.23 310.71 296.83Z" id="bd29Irvqo"></path><path d="M299.37 296.77C299.37 296.77 302.69 296.77 309.34 296.77C309.34 296.77 309.34 296.77 309.34 296.77C315.99 296.77 319.31 296.77 319.31 296.77C319.31 327.21 319.31 344.12 319.31 347.51C319.31 347.51 315.99 347.51 309.34 347.51C309.34 347.51 309.34 347.51 309.34 347.51C302.69 347.51 299.37 347.51 299.37 347.51C299.37 317.06 299.37 300.15 299.37 296.77Z" id="c8hunQaO6e"></path><path d="M299.94 347.51L299.94 297.06L309.51 297.06L309.51 347.51L299.94 347.51ZM302.37 336.05L301.7 336.76L301.26 337.67L301.1 338.72L301.1 342.96L301.26 344.01L301.7 344.92L302.37 345.63L303.23 346.1L304.21 346.27L305.19 346.1L306.05 345.63L306.72 344.92L307.16 344.01L307.32 342.96L307.32 338.72L307.16 337.67L306.72 336.76L306.05 336.05L305.19 335.58L304.21 335.41L303.23 335.58L302.37 336.05ZM302.37 323.42L301.7 324.13L301.26 325.04L301.1 326.08L301.1 330.35L301.26 331.4L301.7 332.3L302.37 333.02L303.23 333.49L304.21 333.66L305.19 333.49L306.05 333.02L306.72 332.3L307.16 331.4L307.32 330.35L307.32 326.08L307.16 325.04L306.72 324.13L306.05 323.42L305.19 322.95L304.21 322.78L303.23 322.95L302.37 323.42ZM302.37 310.8L301.7 311.52L301.26 312.43L301.1 313.47L301.1 317.72L301.26 318.77L301.7 319.67L302.37 320.39L303.23 320.86L304.21 321.02L305.19 320.86L306.05 320.39L306.72 319.67L307.16 318.77L307.32 317.72L307.32 313.47L307.16 312.43L306.72 311.52L306.05 310.8L305.19 310.34L304.21 310.17L303.23 310.34L302.37 310.8ZM302.37 298.17L301.7 298.89L301.26 299.79L301.1 300.84L301.1 305.11L301.26 306.15L301.7 307.06L302.37 307.77L303.23 308.24L304.21 308.41L305.19 308.24L306.05 307.77L306.72 307.06L307.16 306.15L307.32 305.11L307.32 300.84L307.16 299.79L306.72 298.89L306.05 298.17L305.19 297.7L304.21 297.54L303.23 297.7L302.37 298.17Z" id="m7X44qQ88j"></path><path d="M324.26 285.64C324.4 288.07 322.67 290.16 320.38 290.31C320.21 290.32 320.04 290.32 319.86 290.31C317.58 290.47 315.61 288.62 315.46 286.19C315.32 283.76 317.06 281.67 319.34 281.52C319.52 281.5 319.69 281.5 319.86 281.52C322.15 281.36 324.12 283.21 324.26 285.64Z" id="ec1L4bCON"></path><path d="M324.26 276.7C324.4 279.13 322.67 281.23 320.38 281.38C320.21 281.39 320.04 281.39 319.86 281.38C317.58 281.53 315.61 279.68 315.46 277.25C315.32 274.83 317.06 272.73 319.34 272.58C319.52 272.57 319.69 272.57 319.86 272.58C322.15 272.43 324.12 274.27 324.26 276.7Z" id="a2NQgzpJQX"></path><path d="M324.26 255.12C324.4 257.55 322.67 259.64 320.38 259.79C320.21 259.81 320.04 259.81 319.86 259.79C317.58 259.95 315.61 258.1 315.46 255.67C315.32 253.24 317.06 251.15 319.34 251C319.52 250.99 319.69 250.99 319.86 251C322.15 250.85 324.12 252.69 324.26 255.12Z" id="e1hdW5eBKI"></path><path d="M324.26 246.19C324.4 248.61 322.67 250.71 320.38 250.86C320.21 250.87 320.04 250.87 319.86 250.86C317.58 251.01 315.61 249.17 315.46 246.74C315.32 244.31 317.06 242.21 319.34 242.06C319.52 242.05 319.69 242.05 319.86 242.06C322.15 241.91 324.12 243.76 324.26 246.19Z" id="fXNmelKcS"></path><path d="M308.73 236.2L312.75 232.82L318.83 241.79L318.83 291.56L307.83 291.56L308.73 236.2Z" id="a40IMLqGyL"></path><path d="M299.94 291.97L299.94 246.88L309.51 236.57L309.51 291.97L299.94 291.97ZM302.37 280.5L301.7 281.21L301.26 282.12L301.1 283.17L301.1 287.43L301.26 288.48L301.7 289.39L302.37 290.1L303.23 290.57L304.21 290.74L305.19 290.57L306.05 290.1L306.72 289.39L307.16 288.48L307.32 287.43L307.32 283.17L307.16 282.12L306.72 281.21L306.05 280.5L305.19 280.03L304.21 279.86L303.23 280.03L302.37 280.5ZM302.37 267.89L301.7 268.6L301.26 269.51L301.1 270.55L301.1 274.8L301.26 275.85L301.7 276.75L302.37 277.47L303.23 277.94L304.21 278.11L305.19 277.94L306.05 277.47L306.72 276.75L307.16 275.85L307.32 274.8L307.32 270.55L307.16 269.51L306.72 268.6L306.05 267.89L305.19 267.42L304.21 267.25L303.23 267.42L302.37 267.89ZM302.37 255.25L301.7 255.97L301.26 256.88L301.1 257.92L301.1 262.19L301.26 263.23L301.7 264.14L302.37 264.86L303.23 265.33L304.21 265.49L305.19 265.33L306.05 264.86L306.72 264.14L307.16 263.23L307.32 262.19L307.32 257.92L307.16 256.88L306.72 255.97L306.05 255.25L305.19 254.79L304.21 254.62L303.23 254.79L302.37 255.25ZM306.59 245.65L306.59 239.87L301.3 245.65L306.59 245.65Z" id="a3aapEj5l"></path><path d="M310.71 233.32C310.71 233.32 311.14 233.32 311.99 233.32C311.99 233.32 311.99 233.32 311.99 233.32C312.85 233.32 313.27 233.32 313.27 233.32C313.27 268.7 313.27 288.35 313.27 292.28C313.27 292.28 312.85 292.28 311.99 292.28C311.99 292.28 311.99 292.28 311.99 292.28C311.14 292.28 310.71 292.28 310.71 292.28C310.71 256.9 310.71 237.25 310.71 233.32Z" id="a1lSgNpz1"></path><path d="M306.59 245.64L301.29 245.64L306.59 239.87L306.59 245.64Z" id="komhsY4cj"></path><linearGradient id="gradienta1flcasDwA" gradientUnits="userSpaceOnUse" x1="303.94" y1="245.64" x2="303.94" y2="239.87"><stop style="stop-color: #6a93c5;stop-opacity: 0.47843099" offset="0%"></stop><stop style="stop-color: #ffffff;stop-opacity: 0.625" offset="100%"></stop></linearGradient><path d="M299.37 247.96L312.42 232.29L319.31 241.23L319.31 291.97L299.37 291.97L299.37 247.96Z" id="d1pg47xwXP"></path><path d="M298.51 256.09L293.86 261.59L291.01 261.59L291.01 257.05" id="b7h1MrjHB"></path><path d="M301.1 338.71C301.1 336.51 302.14 335.41 304.21 335.41C304.21 335.41 304.21 335.41 304.21 335.41C306.28 335.41 307.31 336.51 307.31 338.71C307.31 341.27 307.31 342.69 307.31 342.97C307.31 345.17 306.28 346.27 304.21 346.27C304.21 346.27 304.21 346.27 304.21 346.27C302.14 346.27 301.1 345.17 301.1 342.97C301.1 340.41 301.1 338.99 301.1 338.71Z" id="aCogBFZV0"></path><linearGradient id="gradientbD9KlY4WA" gradientUnits="userSpaceOnUse" x1="304.21" y1="346.27" x2="304.21" y2="335.41"><stop style="stop-color: #6a93c5;stop-opacity: 0.47843099" offset="0%"></stop><stop style="stop-color: #ffffff;stop-opacity: 0.625" offset="100%"></stop></linearGradient><path d="M301.1 326.09C301.1 323.89 302.14 322.79 304.21 322.79C304.21 322.79 304.21 322.79 304.21 322.79C306.28 322.79 307.31 323.89 307.31 326.09C307.31 328.64 307.31 330.06 307.31 330.35C307.31 332.55 306.28 333.65 304.21 333.65C304.21 333.65 304.21 333.65 304.21 333.65C302.14 333.65 301.1 332.55 301.1 330.35C301.1 327.79 301.1 326.37 301.1 326.09Z" id="a1yR5hR2o"></path><linearGradient id="gradientbAbQ4EEwL" gradientUnits="userSpaceOnUse" x1="304.21" y1="333.65" x2="304.21" y2="322.79"><stop style="stop-color: #6a93c5;stop-opacity: 0.47843099" offset="0%"></stop><stop style="stop-color: #ffffff;stop-opacity: 0.625" offset="100%"></stop></linearGradient><path d="M301.1 313.46C301.1 311.26 302.14 310.16 304.21 310.16C304.21 310.16 304.21 310.16 304.21 310.16C306.28 310.16 307.31 311.26 307.31 313.46C307.31 316.02 307.31 317.44 307.31 317.73C307.31 319.92 306.28 321.02 304.21 321.02C304.21 321.02 304.21 321.02 304.21 321.02C302.14 321.02 301.1 319.92 301.1 317.73C301.1 315.17 301.1 313.75 301.1 313.46Z" id="flNawhvqv"></path><linearGradient id="gradientc5xZCqpexQ" gradientUnits="userSpaceOnUse" x1="304.21" y1="321.02" x2="304.21" y2="310.16"><stop style="stop-color: #6a93c5;stop-opacity: 0.47843099" offset="0%"></stop><stop style="stop-color: #ffffff;stop-opacity: 0.625" offset="100%"></stop></linearGradient><path d="M301.1 300.84C301.1 298.64 302.14 297.54 304.21 297.54C304.21 297.54 304.21 297.54 304.21 297.54C306.28 297.54 307.31 298.64 307.31 300.84C307.31 303.4 307.31 304.82 307.31 305.1C307.31 307.3 306.28 308.4 304.21 308.4C304.21 308.4 304.21 308.4 304.21 308.4C302.14 308.4 301.1 307.3 301.1 305.1C301.1 302.55 301.1 301.13 301.1 300.84Z" id="c90NNbw3n0"></path><linearGradient id="gradientb7IwPHzSh" gradientUnits="userSpaceOnUse" x1="304.21" y1="308.4" x2="304.21" y2="297.54"><stop style="stop-color: #6a93c5;stop-opacity: 0.47843099" offset="0%"></stop><stop style="stop-color: #ffffff;stop-opacity: 0.625" offset="100%"></stop></linearGradient><path d="M301.1 283.17C301.1 280.97 302.14 279.87 304.21 279.87C304.21 279.87 304.21 279.87 304.21 279.87C306.28 279.87 307.31 280.97 307.31 283.17C307.31 285.73 307.31 287.15 307.31 287.43C307.31 289.63 306.28 290.73 304.21 290.73C304.21 290.73 304.21 290.73 304.21 290.73C302.14 290.73 301.1 289.63 301.1 287.43C301.1 284.88 301.1 283.45 301.1 283.17Z" id="c30EHslFs"></path><linearGradient id="gradientbLZ323tSi" gradientUnits="userSpaceOnUse" x1="304.21" y1="290.73" x2="304.21" y2="279.87"><stop style="stop-color: #6a93c5;stop-opacity: 0.47843099" offset="0%"></stop><stop style="stop-color: #ffffff;stop-opacity: 0.625" offset="100%"></stop></linearGradient><path d="M301.1 270.55C301.1 268.35 302.14 267.25 304.21 267.25C304.21 267.25 304.21 267.25 304.21 267.25C306.28 267.25 307.31 268.35 307.31 270.55C307.31 273.11 307.31 274.53 307.31 274.81C307.31 277.01 306.28 278.11 304.21 278.11C304.21 278.11 304.21 278.11 304.21 278.11C302.14 278.11 301.1 277.01 301.1 274.81C301.1 272.25 301.1 270.83 301.1 270.55Z" id="a2NwC7jWYL"></path><linearGradient id="gradientah3js3qnx" gradientUnits="userSpaceOnUse" x1="304.21" y1="278.11" x2="304.21" y2="267.25"><stop style="stop-color: #6a93c5;stop-opacity: 0.47843099" offset="0%"></stop><stop style="stop-color: #ffffff;stop-opacity: 0.625" offset="100%"></stop></linearGradient><path d="M301.1 257.93C301.1 255.73 302.14 254.63 304.21 254.63C304.21 254.63 304.21 254.63 304.21 254.63C306.28 254.63 307.31 255.73 307.31 257.93C307.31 260.48 307.31 261.9 307.31 262.19C307.31 264.39 306.28 265.49 304.21 265.49C304.21 265.49 304.21 265.49 304.21 265.49C302.14 265.49 301.1 264.39 301.1 262.19C301.1 259.63 301.1 258.21 301.1 257.93Z" id="bAcfcafgf"></path><linearGradient id="gradientc1hKaSP3z" gradientUnits="userSpaceOnUse" x1="304.21" y1="265.49" x2="304.21" y2="254.63"><stop style="stop-color: #6a93c5;stop-opacity: 0.47843099" offset="0%"></stop><stop style="stop-color: #ffffff;stop-opacity: 0.625" offset="100%"></stop></linearGradient></defs><g><g><g><use xlink:href="#c7e0GQuOk" opacity="1" fill="#000000" fill-opacity="1"></use><g><use xlink:href="#c7e0GQuOk" opacity="1" fill-opacity="0" stroke="#000000" stroke-width="1" stroke-opacity="0"></use></g></g><g><use xlink:href="#d1Ws3usJtl" opacity="1" fill="#000000" fill-opacity="1"></use><g><use xlink:href="#d1Ws3usJtl" opacity="1" fill-opacity="0" stroke="#000000" stroke-width="1" stroke-opacity="0"></use></g></g><g><use xlink:href="#e1X2NfHBgY" opacity="1" fill="#000000" fill-opacity="1"></use><g><use xlink:href="#e1X2NfHBgY" opacity="1" fill-opacity="0" stroke="#000000" stroke-width="1" stroke-opacity="0"></use></g></g><g><use xlink:href="#a3VcXFYvHW" opacity="1" fill="#000000" fill-opacity="1"></use><g><use xlink:href="#a3VcXFYvHW" opacity="1" fill-opacity="0" stroke="#000000" stroke-width="1" stroke-opacity="0"></use></g></g><g><use xlink:href="#a2W8abvWYp" opacity="1" fill="#000000" fill-opacity="1"></use><g><use xlink:href="#a2W8abvWYp" opacity="1" fill-opacity="0" stroke="#000000" stroke-width="1" stroke-opacity="0"></use></g></g><g><use xlink:href="#d1iJO1v1J4" opacity="1" fill="#000000" fill-opacity="1"></use><g><use xlink:href="#d1iJO1v1J4" opacity="1" fill-opacity="0" stroke="#000000" stroke-width="1" stroke-opacity="0"></use></g></g><g><use xlink:href="#c1a4ENhJNk" opacity="1" fill="#ffffff" fill-opacity="1"></use><g><use xlink:href="#c1a4ENhJNk" opacity="1" fill-opacity="0" stroke="#000000" stroke-width="1" stroke-opacity="0"></use></g></g><g><use xlink:href="#bd29Irvqo" opacity="1" fill="#ff0000" fill-opacity="1"></use><g><use xlink:href="#bd29Irvqo" opacity="1" fill-opacity="0" stroke="#000000" stroke-width="1" stroke-opacity="0"></use></g></g><g><use xlink:href="#c8hunQaO6e" opacity="1" fill="#000000" fill-opacity="0"></use><g><use xlink:href="#c8hunQaO6e" opacity="1" fill-opacity="0" stroke="#000000" stroke-width="2.85" stroke-opacity="1"></use></g></g><g><use xlink:href="#m7X44qQ88j" opacity="1" fill="#000000" fill-opacity="1"></use><g><use xlink:href="#m7X44qQ88j" opacity="1" fill-opacity="0" stroke="#000000" stroke-width="1" stroke-opacity="0"></use></g></g><g><use xlink:href="#ec1L4bCON" opacity="1" fill="#000000" fill-opacity="1"></use><g><use xlink:href="#ec1L4bCON" opacity="1" fill-opacity="0" stroke="#000000" stroke-width="1" stroke-opacity="0"></use></g></g><g><use xlink:href="#a2NQgzpJQX" opacity="1" fill="#000000" fill-opacity="1"></use><g><use xlink:href="#a2NQgzpJQX" opacity="1" fill-opacity="0" stroke="#000000" stroke-width="1" stroke-opacity="0"></use></g></g><g><use xlink:href="#e1hdW5eBKI" opacity="1" fill="#000000" fill-opacity="1"></use><g><use xlink:href="#e1hdW5eBKI" opacity="1" fill-opacity="0" stroke="#000000" stroke-width="1" stroke-opacity="0"></use></g></g><g><use xlink:href="#fXNmelKcS" opacity="1" fill="#000000" fill-opacity="1"></use><g><use xlink:href="#fXNmelKcS" opacity="1" fill-opacity="0" stroke="#000000" stroke-width="1" stroke-opacity="0"></use></g></g><g><use xlink:href="#a40IMLqGyL" opacity="1" fill="#ffffff" fill-opacity="1"></use><g><use xlink:href="#a40IMLqGyL" opacity="1" fill-opacity="0" stroke="#000000" stroke-width="1" stroke-opacity="0"></use></g></g><g><use xlink:href="#a3aapEj5l" opacity="1" fill="#000000" fill-opacity="1"></use><g><use xlink:href="#a3aapEj5l" opacity="1" fill-opacity="0" stroke="#000000" stroke-width="1" stroke-opacity="0"></use></g></g><g><use xlink:href="#a1lSgNpz1" opacity="1" fill="#ff0000" fill-opacity="1"></use><g><use xlink:href="#a1lSgNpz1" opacity="1" fill-opacity="0" stroke="#000000" stroke-width="1" stroke-opacity="0"></use></g></g><g><use xlink:href="#komhsY4cj" opacity="1" fill="url(#gradienta1flcasDwA)"></use><g><use xlink:href="#komhsY4cj" opacity="1" fill-opacity="0" stroke="#000000" stroke-width="1" stroke-opacity="0"></use></g></g><g><use xlink:href="#d1pg47xwXP" opacity="1" fill="#000000" fill-opacity="0"></use><g><use xlink:href="#d1pg47xwXP" opacity="1" fill-opacity="0" stroke="#000000" stroke-width="2.85" stroke-opacity="1"></use></g></g><g><use xlink:href="#b7h1MrjHB" opacity="1" fill="#000000" fill-opacity="0"></use><g><use xlink:href="#b7h1MrjHB" opacity="1" fill-opacity="0" stroke="#000000" stroke-width="2.85" stroke-opacity="1"></use></g></g><g><use xlink:href="#aCogBFZV0" opacity="1" fill="url(#gradientbD9KlY4WA)"></use><g><use xlink:href="#aCogBFZV0" opacity="1" fill-opacity="0" stroke="#000000" stroke-width="1" stroke-opacity="0"></use></g></g><g><use xlink:href="#a1yR5hR2o" opacity="1" fill="url(#gradientbAbQ4EEwL)"></use><g><use xlink:href="#a1yR5hR2o" opacity="1" fill-opacity="0" stroke="#000000" stroke-width="1" stroke-opacity="0"></use></g></g><g><use xlink:href="#flNawhvqv" opacity="1" fill="url(#gradientc5xZCqpexQ)"></use><g><use xlink:href="#flNawhvqv" opacity="1" fill-opacity="0" stroke="#000000" stroke-width="1" stroke-opacity="0"></use></g></g><g><use xlink:href="#c90NNbw3n0" opacity="1" fill="url(#gradientb7IwPHzSh)"></use><g><use xlink:href="#c90NNbw3n0" opacity="1" fill-opacity="0" stroke="#000000" stroke-width="1" stroke-opacity="0"></use></g></g><g><use xlink:href="#c30EHslFs" opacity="1" fill="url(#gradientbLZ323tSi)"></use><g><use xlink:href="#c30EHslFs" opacity="1" fill-opacity="0" stroke="#000000" stroke-width="1" stroke-opacity="0"></use></g></g><g><use xlink:href="#a2NwC7jWYL" opacity="1" fill="url(#gradientah3js3qnx)"></use><g><use xlink:href="#a2NwC7jWYL" opacity="1" fill-opacity="0" stroke="#000000" stroke-width="1" stroke-opacity="0"></use></g></g><g><use xlink:href="#bAcfcafgf" opacity="1" fill="url(#gradientc1hKaSP3z)"></use><g><use xlink:href="#bAcfcafgf" opacity="1" fill-opacity="0" stroke="#000000" stroke-width="1" stroke-opacity="0"></use></g></g></g></g></svg>